<svg width="191.065674" height="17.355469" viewBox="0 0 191.066 17.3555" fill="none" xmlns="http://www.w3.org/2000/svg" xmlns:xlink="http://www.w3.org/1999/xlink">
	<desc>
			Created with Pixso.
	</desc>
	<defs/>
	<path id="UnwindCabins" d="M27.74 17.18L31.1 17.18L31.1 0.41L27.74 0.41L27.74 11.92L20.13 0.41L16.78 0.41L16.78 17.18L20.13 17.18L20.13 5.68L27.74 17.18ZM76.63 17.18L79.99 17.18L79.99 0.41L76.63 0.41L76.63 11.92L69.02 0.41L65.66 0.41L65.66 17.18L69.02 17.18L69.02 5.68L76.63 17.18ZM3.36 10.79L3.36 0.43L9.91e-5 0.43L9.91e-5 10.77Q9.91e-5 12.91 0.89 14.39Q1.38 15.2 2.06 15.79Q2.62 16.27 3.3 16.61Q3.36 16.64 3.42 16.67Q4.9 17.35 6.69 17.35Q8.56 17.35 10.09 16.63Q10.12 16.62 10.14 16.61Q10.84 16.27 11.41 15.79Q12.1 15.2 12.61 14.39Q13.54 12.91 13.54 10.77L13.54 0.43L10.15 0.43L10.15 10.79Q10.15 12.42 9.34 13.31Q9.3 13.36 9.26 13.4Q9.17 13.49 9.07 13.58Q8.21 14.3 6.74 14.3Q5.34 14.3 4.48 13.61Q4.36 13.52 4.24 13.4Q4.21 13.36 4.17 13.33Q3.36 12.43 3.36 10.79ZM52.12 17.18L56.8 0.43L53.18 0.43L50.21 13.37L46.99 0.43L43.25 0.43L39.84 13.44L36.89 0.43L33.29 0.43L37.8 17.2L41.73 17.18L45.02 5.25L48.17 17.18L52.12 17.18ZM62.35 17.18L62.35 0.43L58.99 0.43L58.99 17.18L62.35 17.18ZM93.8 1.46Q91.8 0.43 89.16 0.43L83.3 0.43L83.3 17.18L89.16 17.18Q91.8 17.18 93.8 16.15Q95.03 15.52 95.92 14.56Q96.48 13.96 96.9 13.24Q97.99 11.35 97.99 8.83Q97.99 6.35 96.93 4.46Q96.91 4.43 96.9 4.4Q96.43 3.59 95.81 2.94Q94.96 2.05 93.8 1.46ZM92.81 13.16Q91.41 14.33 89.04 14.33L86.66 14.33L86.66 3.26L89.04 3.26Q91.34 3.26 92.73 4.38Q92.94 4.55 93.12 4.74Q93.28 4.91 93.43 5.09Q94.56 6.51 94.56 8.83Q94.56 11.15 93.42 12.55Q93.28 12.72 93.12 12.89Q92.97 13.03 92.81 13.16Z" fill="#166527" fill-opacity="1.000000" fill-rule="evenodd"/>
	<path id="UnwindCabins" d="M179.9 15.94Q181.8 17.35 184.75 17.35Q186.7 17.35 188.12 16.65Q189.37 16.04 190.11 15.05Q190.21 14.91 190.31 14.76Q190.52 14.42 190.67 14.05Q191.06 13.13 191.06 12.04Q191.06 10.69 190.44 9.77Q190.37 9.68 190.31 9.59Q189.73 8.85 189 8.36Q188.76 8.21 188.51 8.08Q187.46 7.53 185.85 6.98Q184.77 6.6 184.22 6.35Q183.67 6.09 183.3 5.75Q183.08 5.54 182.99 5.29Q182.93 5.11 182.93 4.92Q182.93 4.44 183.16 4.14Q183.21 4.08 183.26 4.03Q183.35 3.95 183.45 3.89Q183.73 3.72 184.12 3.72Q184.7 3.72 185.1 3.98Q185.19 4.03 185.27 4.1Q185.32 4.15 185.37 4.2Q185.71 4.58 185.74 5.25L190.84 5.25Q190.77 3.61 189.98 2.46Q189.57 1.85 188.96 1.38Q187.2 0 184.25 0Q182.42 0 180.98 0.6Q179.85 1.07 179.1 1.89Q178.9 2.11 178.73 2.36Q178.62 2.51 178.53 2.66Q177.91 3.73 177.91 5.16Q177.91 6.76 178.67 7.76Q179.37 8.68 180.3 9.2Q180.37 9.23 180.44 9.27Q181.46 9.79 183.12 10.34Q184.68 10.85 185.37 11.26Q185.78 11.49 185.95 11.84Q186.07 12.09 186.07 12.41Q186.07 12.75 185.92 13Q185.82 13.17 185.65 13.31Q185.63 13.32 185.61 13.33Q185.21 13.63 184.58 13.63Q183.99 13.63 183.58 13.36Q183.49 13.3 183.4 13.23Q182.95 12.82 182.88 11.92L177.86 11.92Q177.95 13.61 178.77 14.79Q179.22 15.44 179.9 15.94ZM100.62 4.32Q99.62 6.25 99.62 8.68Q99.62 11.2 100.66 13.16Q101.2 14.16 101.96 14.94Q102.69 15.68 103.63 16.21Q103.74 16.27 103.84 16.33Q105.69 17.3 108.05 17.3Q110.65 17.3 112.58 16.15Q112.99 15.91 113.37 15.61Q114.09 15.05 114.64 14.35Q115.74 12.95 116.16 11.01L111.09 11.01Q110.7 11.83 110.06 12.32Q109.95 12.4 109.83 12.48Q109.72 12.55 109.59 12.61Q108.88 12.98 107.97 12.98Q106.99 12.98 106.25 12.56Q105.76 12.28 105.37 11.82Q105.36 11.81 105.36 11.8Q104.4 10.64 104.4 8.68Q104.4 6.78 105.33 5.63Q105.35 5.61 105.37 5.58Q105.76 5.11 106.26 4.83Q107 4.41 107.97 4.41Q108.88 4.41 109.59 4.78Q109.72 4.84 109.83 4.92Q109.95 4.99 110.06 5.07Q110.7 5.56 111.09 6.38L116.16 6.38Q115.74 4.44 114.63 3.04Q114.09 2.35 113.37 1.79Q112.98 1.48 112.56 1.23Q110.64 0.09 108.05 0.09Q105.69 0.09 103.84 1.07Q103.74 1.12 103.63 1.18Q102.69 1.72 101.96 2.45Q101.2 3.23 100.66 4.23Q100.64 4.28 100.62 4.32ZM122.18 17.18L123.09 14.42L129.09 14.42L130.01 17.18L134.98 17.18L128.83 0.26L123.4 0.26L117.24 17.18L122.18 17.18ZM148.94 9.24Q148.25 8.7 147.31 8.49Q148.16 8.26 148.78 7.75Q149.12 7.48 149.39 7.14Q149.49 7 149.59 6.85Q150.17 5.94 150.17 4.65Q150.17 3.32 149.57 2.37Q149.22 1.83 148.69 1.41Q147.21 0.26 144.62 0.26L136.51 0.26L136.51 17.18L144.89 17.18Q147.58 17.18 149.06 15.96Q149.58 15.53 149.92 14.99Q150.55 13.98 150.55 12.58Q150.55 11.78 150.29 11.07Q150.07 10.49 149.67 9.97Q149.35 9.55 148.94 9.24ZM157.32 17.18L157.32 0.26L152.61 0.26L152.61 17.18L157.32 17.18ZM170.97 17.18L175.68 17.18L175.68 0.26L170.97 0.26L170.97 9.84L164.71 0.26L160 0.26L160 17.18L164.71 17.18L164.71 7.72L170.97 17.18ZM143.59 6.98L141.21 6.98L141.21 4L143.59 4Q144.62 4 145.05 4.51Q145.37 4.88 145.37 5.51Q145.37 6.11 145.08 6.46Q144.65 6.98 143.59 6.98ZM126.09 5.35L127.92 10.82L124.29 10.82L126.09 5.35ZM145.42 12.88Q144.99 13.39 143.95 13.39L141.21 13.39L141.21 10.32L143.92 10.32Q144.79 10.32 145.25 10.73Q145.35 10.81 145.43 10.91Q145.72 11.29 145.72 11.9Q145.72 12.52 145.42 12.88Z" fill="#1A3724" fill-opacity="1.000000" fill-rule="evenodd"/>
</svg>
