<svg width="19.500000" height="19.500000" viewBox="0 0 19.5 19.5" fill="none" xmlns="http://www.w3.org/2000/svg" xmlns:xlink="http://www.w3.org/1999/xlink">
	<desc>
			Created with Pixso.
	</desc>
	<defs/>
	<path id="Vector" d="M16.43 16.84C17.4 15.93 18.17 14.83 18.7 13.61C19.23 12.39 19.5 11.07 19.5 9.75C19.5 4.36 15.13 0 9.75 0C4.36 0 0 4.36 0 9.75C-0.01 11.07 0.26 12.39 0.79 13.61C1.32 14.83 2.09 15.93 3.06 16.84C4.87 18.55 7.26 19.5 9.75 19.5C12.23 19.5 14.62 18.55 16.43 16.84ZM3.89 15.56C4.59 14.68 5.48 13.97 6.5 13.48C7.51 13 8.62 12.74 9.75 12.75C10.87 12.74 11.98 13 12.99 13.48C14.01 13.97 14.9 14.68 15.6 15.56C14.83 16.33 13.92 16.94 12.92 17.36C11.91 17.78 10.83 18 9.75 18C8.66 18 7.58 17.78 6.57 17.36C5.57 16.94 4.66 16.33 3.89 15.56ZM13.5 6.75C13.5 7.74 13.1 8.69 12.4 9.4C11.69 10.1 10.74 10.5 9.75 10.5C8.75 10.5 7.8 10.1 7.09 9.4C6.39 8.69 6 7.74 6 6.75C6 5.75 6.39 4.8 7.09 4.09C7.8 3.39 8.75 3 9.75 3C10.74 3 11.69 3.39 12.4 4.09C13.1 4.8 13.5 5.75 13.5 6.75Z" fill="#3F3F3F" fill-opacity="1.000000" fill-rule="evenodd"/>
</svg>
